<svg id="svg" version="1.1" width="446" height="445" xmlns="http://www.w3.org/2000/svg" xmlns:xlink="http://www.w3.org/1999/xlink" ><g id="svgg"><path id="path0" d="M-0.000 62.668 C 0.000 130.191,0.043 130.920,4.824 145.399 C 10.378 162.219,15.760 170.505,33.785 189.993 L 43.193 200.164 32.086 211.517 C 15.168 228.808,8.411 239.684,2.961 258.392 L 0.508 266.816 0.221 332.960 L -0.066 399.103 57.590 399.073 C 150.466 399.024,154.947 397.884,189.065 365.605 C 195.300 359.706,199.617 356.259,200.275 356.654 C 200.864 357.007,205.993 361.665,211.674 367.004 C 226.571 381.006,234.617 386.748,245.279 390.988 C 265.799 399.147,259.171 398.557,333.919 398.887 L 400.125 399.179 399.760 333.895 C 399.348 260.220,399.816 265.428,391.791 245.194 C 387.521 234.428,381.510 226.048,366.896 210.484 C 361.426 204.659,356.957 199.614,356.964 199.273 C 356.972 198.933,361.864 193.408,367.837 186.996 C 398.827 153.724,399.983 149.137,399.993 59.417 L 400.000 0.000 336.382 0.000 C 268.298 0.000,267.856 0.025,253.812 4.646 C 237.356 10.061,228.015 16.077,212.154 31.476 L 200.429 42.860 189.676 33.022 C 178.146 22.473,166.024 12.894,162.352 11.429 C 161.108 10.933,158.212 9.567,155.916 8.394 C 153.620 7.220,147.163 4.968,141.566 3.388 L 131.390 0.515 65.695 0.225 L -0.000 -0.066 -0.000 62.668 M123.571 33.155 C 145.765 35.706,169.405 53.513,177.191 73.543 C 178.053 75.762,179.170 78.109,179.672 78.758 C 180.175 79.407,180.693 80.819,180.825 81.897 C 182.298 93.939,182.864 110.787,182.908 143.848 L 182.960 183.213 137.444 182.713 C 89.491 182.186,84.961 181.831,75.785 177.878 C 56.422 169.537,42.936 154.759,35.587 133.832 L 32.840 126.009 32.462 79.148 L 32.085 32.287 74.114 32.294 C 97.230 32.298,119.486 32.685,123.571 33.155 M366.646 80.045 L 366.316 127.803 362.182 137.881 C 352.805 160.746,334.259 177.245,313.547 181.149 C 306.443 182.488,218.638 183.050,217.344 181.764 C 215.641 180.073,216.460 91.534,218.241 84.753 C 221.730 71.470,231.424 56.510,242.167 47.829 C 247.988 43.126,261.290 35.874,264.097 35.874 C 264.917 35.874,266.424 35.427,267.446 34.881 C 270.715 33.131,284.684 32.546,326.313 32.415 L 366.976 32.287 366.646 80.045 M182.695 263.901 C 182.219 316.094,182.296 315.297,176.667 326.528 C 167.185 345.444,154.003 356.526,132.647 363.535 C 126.070 365.694,125.580 365.719,79.148 366.298 L 32.287 366.881 32.320 329.405 C 32.355 290.709,33.176 271.807,35.059 266.368 C 41.551 247.614,48.424 237.925,61.202 229.515 C 73.830 221.204,80.053 218.551,89.686 217.372 C 91.906 217.100,93.890 216.713,94.096 216.511 C 94.301 216.309,114.418 216.143,138.800 216.143 L 183.130 216.143 182.695 263.901 M317.040 218.784 C 337.795 225.560,354.320 239.902,360.645 256.628 C 361.645 259.272,363.328 263.655,364.385 266.368 C 366.250 271.151,366.317 272.743,366.612 319.008 L 366.916 366.715 320.454 366.241 C 271.498 365.740,269.330 365.563,260.594 361.346 C 258.651 360.408,256.494 359.641,255.801 359.641 C 254.081 359.641,242.847 352.019,237.561 347.267 C 229.473 339.995,220.586 324.008,218.010 312.097 C 216.772 306.373,215.488 227.186,216.522 220.318 L 217.176 215.971 263.969 216.353 C 309.756 216.726,310.897 216.778,317.040 218.784 " stroke="none" fill="#000000" fill-rule="evenodd"></path></g></svg>